# xmcd CD database file
#
# Track frame offsets:
#	150
#	16610
#	30974
#	48925
#	65329
#	84461
#	102716
#	120742
#	135864
#	152436
#	169956
#	186452
#	207007
#
# Disc length: 3011 seconds
#
# Revision: 0
# Processed by: cddbd v1.5.2PL0 Copyright (c) Steve Scherf et al.
# Submitted via: CDex 1.70beta3
#
DISCID=9d0bc10d
DTITLE=Rooster - Circles And Satellites [Bonus Track]
DYEAR=1900
DGENRE=ロック
TTITLE0=Home
TTITLE1=I Come Alive
TTITLE2=One Of Those Days
TTITLE3=Everything Moves So Fast
TTITLE4=So Long
TTITLE5=Maybe I'm Right
TTITLE6=Clear Skies
TTITLE7=Get Up
TTITLE8=Good To Be Here
TTITLE9=Unexpectedly
TTITLE10=In Your Head
TTITLE11=Halo
TTITLE12=Breathe
EXTD=
EXTT0=
EXTT1=
EXTT2=
EXTT3=
EXTT4=
EXTT5=
EXTT6=
EXTT7=
EXTT8=
EXTT9=
EXTT10=
EXTT11=
EXTT12=
PLAYORDER=
